<svg width="30" height="30" viewBox="0 0 30 30" fill="none" xmlns="http://www.w3.org/2000/svg">
<path d="M13 23C15.2187 22.9995 17.3735 22.2568 19.1212 20.89L24.6162 26.385L26.3837 24.6175L20.8888 19.1225C22.2562 17.3746 22.9995 15.2193 23 13C23 7.48625 18.5137 3 13 3C7.48625 3 3 7.48625 3 13C3 18.5138 7.48625 23 13 23ZM13 5.5C17.1362 5.5 20.5 8.86375 20.5 13C20.5 17.1362 17.1362 20.5 13 20.5C8.86375 20.5 5.5 17.1362 5.5 13C5.5 8.86375 8.86375 5.5 13 5.5Z" fill="#FF8307" fill-opacity="0.95"/>
<path d="M14.265 10.7324C14.7388 11.2074 15 11.8349 15 12.4999H17.5C17.5011 11.8429 17.372 11.1922 17.1201 10.5855C16.8682 9.97871 16.4986 9.42789 16.0325 8.96486C14.14 7.07486 10.8588 7.07486 8.96753 8.96486L10.7325 10.7349C11.6825 9.78736 13.32 9.78986 14.265 10.7324Z" fill="#FF8307" fill-opacity="0.95"/>
</svg>
